<svg width="25" height="25" viewBox="0 0 25 25" fill="none" xmlns="http://www.w3.org/2000/svg">
<path fill-rule="evenodd" clip-rule="evenodd" d="M4.20837 4.1786C4.08275 4.03192 4.00181 3.85231 3.97515 3.66104C3.94848 3.46977 3.97722 3.27487 4.05794 3.09943C4.13866 2.92399 4.26798 2.77537 4.43059 2.67119C4.59319 2.567 4.78225 2.51162 4.97537 2.5116H17.4534C18.0443 2.5116 18.6295 2.62799 19.1754 2.85414C19.7214 3.08029 20.2175 3.41175 20.6353 3.82962C21.0532 4.24748 21.3847 4.74356 21.6108 5.28952C21.837 5.83549 21.9534 6.42065 21.9534 7.0116C21.9534 7.60255 21.837 8.18771 21.6108 8.73367C21.3847 9.27964 21.0532 9.77571 20.6353 10.1936C20.2175 10.6114 19.7214 10.9429 19.1754 11.1691C18.6295 11.3952 18.0443 11.5116 17.4534 11.5116H4.97537C4.78225 11.5116 4.59319 11.4562 4.43059 11.352C4.26798 11.2478 4.13866 11.0992 4.05794 10.9238C3.97722 10.7483 3.94848 10.5534 3.97515 10.3622C4.00181 10.1709 4.08275 9.99127 4.20837 9.8446L4.96237 8.9646C5.42849 8.42085 5.68471 7.72829 5.68471 7.0121C5.68471 6.29591 5.42849 5.60334 4.96237 5.0596L4.20837 4.1796V4.1786ZM7.01537 4.5116C7.45382 5.27183 7.68462 6.13399 7.68462 7.0116C7.68462 7.8892 7.45382 8.75137 7.01537 9.5116H17.4534C18.1164 9.5116 18.7523 9.2482 19.2211 8.77936C19.69 8.31052 19.9534 7.67464 19.9534 7.0116C19.9534 6.34856 19.69 5.71267 19.2211 5.24383C18.7523 4.77499 18.1164 4.5116 17.4534 4.5116H7.01537ZM3.95337 17.0116C3.95337 15.8181 4.42747 14.6735 5.27139 13.8296C6.1153 12.9857 7.25989 12.5116 8.45337 12.5116H20.9314C21.1245 12.5116 21.3135 12.567 21.4762 12.6712C21.6388 12.7754 21.7681 12.924 21.8488 13.0994C21.9295 13.2749 21.9583 13.4698 21.9316 13.661C21.9049 13.8523 21.824 14.0319 21.6984 14.1786L20.9434 15.0586C20.4772 15.6023 20.221 16.2949 20.221 17.0111C20.221 17.7273 20.4772 18.4198 20.9434 18.9636L21.6984 19.8436C21.8243 19.9902 21.9055 20.17 21.9323 20.3614C21.9592 20.5528 21.9305 20.7479 21.8498 20.9236C21.769 21.0992 21.6395 21.2479 21.4767 21.3522C21.314 21.4564 21.1247 21.5117 20.9314 21.5116H8.45337C7.25989 21.5116 6.1153 21.0375 5.27139 20.1936C4.42747 19.3497 3.95337 18.2051 3.95337 17.0116ZM8.45337 14.5116C7.79033 14.5116 7.15444 14.775 6.6856 15.2438C6.21676 15.7127 5.95337 16.3486 5.95337 17.0116C5.95337 17.6746 6.21676 18.3105 6.6856 18.7794C7.15444 19.2482 7.79033 19.5116 8.45337 19.5116H18.8914C18.4529 18.7514 18.2221 17.8892 18.2221 17.0116C18.2221 16.134 18.4529 15.2718 18.8914 14.5116H8.45337Z" fill="url(#paint0_linear_1_740)"/>
<defs>
<linearGradient id="paint0_linear_1_740" x1="7.5278" y1="3.08183" x2="19.2536" y2="20.7475" gradientUnits="userSpaceOnUse">
<stop stop-color="#ffA16E4B"/>
<stop offset="1" stop-color="#ffA16E4B"/>
</linearGradient>
</defs>
</svg>
